<?xml version="1.0" standalone="no"?>
<!DOCTYPE svg PUBLIC "-//W3C//DTD SVG 20010904//EN"
 "http://www.w3.org/TR/2001/REC-SVG-20010904/DTD/svg10.dtd">
<svg version="1.0" xmlns="http://www.w3.org/2000/svg"
 width="100.000000pt" height="111.000000pt" viewBox="0 0 100.000000 111.000000"
 preserveAspectRatio="xMidYMid meet">

<g transform="translate(0.000000,111.000000) scale(0.100000,-0.100000)"
fill="#000000" stroke="none">
<path d="M697 789 c-9 -5 -24 -24 -33 -40 -12 -24 -38 -41 -122 -80 -59 -28
-110 -56 -114 -62 -4 -7 -8 -141 -8 -298 0 -249 2 -288 16 -300 11 -9 20 -10
32 -2 14 8 18 35 22 164 l5 154 85 43 c71 35 92 41 126 37 52 -7 71 1 90 37
20 39 4 81 -37 99 -39 16 -72 1 -94 -42 -12 -23 -35 -40 -90 -65 -41 -19 -76
-34 -80 -34 -3 0 -4 39 -3 88 l3 87 85 43 c72 36 91 41 127 36 50 -6 80 8 94
43 23 62 -47 125 -104 92z"/>
</g>
</svg>
